<svg xmlns="http://www.w3.org/2000/svg" xmlns:xlink="http://www.w3.org/1999/xlink" width="65" zoomAndPan="magnify" viewBox="0 0 48.75 48.749998" height="65" preserveAspectRatio="xMidYMid meet" version="1.0"><defs><clipPath id="1bc91ae7ff"><path d="M 3.148438 3.148438 L 45.683594 3.148438 L 45.683594 45.683594 L 3.148438 45.683594 Z M 3.148438 3.148438 " clip-rule="nonzero"/></clipPath></defs><g clip-path="url(#1bc91ae7ff)"><path fill="#563d7c" d="M 3.148438 40.199219 C 3.148438 43.226562 5.605469 45.683594 8.632812 45.683594 L 40.199219 45.683594 C 43.226562 45.683594 45.679688 43.226562 45.679688 40.199219 L 45.679688 8.632812 C 45.679688 5.605469 43.226562 3.148438 40.199219 3.148438 L 8.632812 3.148438 C 5.605469 3.148438 3.148438 5.605469 3.148438 8.632812 Z M 3.148438 40.199219 " fill-opacity="1" fill-rule="nonzero"/></g><path fill="#ffffff" d="M 20.789062 21.964844 L 20.789062 15.941406 L 26.089844 15.941406 C 26.59375 15.941406 27.082031 15.980469 27.550781 16.066406 C 28.019531 16.152344 28.433594 16.300781 28.792969 16.515625 C 29.152344 16.734375 29.441406 17.035156 29.660156 17.417969 C 29.875 17.804688 29.984375 18.296875 29.984375 18.898438 C 29.984375 19.980469 29.660156 20.761719 29.007812 21.242188 C 28.363281 21.722656 27.53125 21.964844 26.519531 21.964844 Z M 15.125 11.539062 L 15.125 37.292969 L 27.605469 37.292969 C 28.757812 37.292969 29.882812 37.148438 30.976562 36.859375 C 32.070312 36.570312 33.042969 36.125 33.898438 35.523438 C 34.75 34.921875 35.429688 34.148438 35.933594 33.199219 C 36.4375 32.246094 36.691406 31.125 36.691406 29.824219 C 36.691406 28.214844 36.300781 26.839844 35.519531 25.695312 C 34.738281 24.554688 33.554688 23.753906 31.96875 23.296875 C 33.121094 22.746094 33.992188 22.035156 34.582031 21.167969 C 35.171875 20.304688 35.464844 19.222656 35.464844 17.921875 C 35.464844 16.722656 35.269531 15.710938 34.871094 14.894531 C 34.472656 14.078125 33.914062 13.421875 33.195312 12.929688 C 32.472656 12.4375 31.605469 12.082031 30.597656 11.863281 C 29.585938 11.648438 28.46875 11.539062 27.242188 11.539062 Z M 20.789062 32.890625 L 20.789062 25.824219 L 26.953125 25.824219 C 28.179688 25.824219 29.164062 26.105469 29.910156 26.671875 C 30.65625 27.234375 31.03125 28.179688 31.03125 29.5 C 31.03125 30.175781 30.914062 30.726562 30.6875 31.160156 C 30.457031 31.59375 30.152344 31.933594 29.765625 32.1875 C 29.382812 32.441406 28.9375 32.621094 28.433594 32.730469 C 27.929688 32.835938 27.398438 32.890625 26.847656 32.890625 Z M 20.789062 32.890625 " fill-opacity="1" fill-rule="nonzero"/></svg>