<svg xmlns="http://www.w3.org/2000/svg" xmlns:xlink="http://www.w3.org/1999/xlink" width="65" zoomAndPan="magnify" viewBox="0 0 48.75 48.749998" height="65" preserveAspectRatio="xMidYMid meet" version="1.0"><defs><clipPath id="7ce26ff0b6"><path d="M 4.691406 2.117188 L 43.492188 2.117188 L 43.492188 46 L 4.691406 46 Z M 4.691406 2.117188 " clip-rule="nonzero"/></clipPath><clipPath id="455d8b326f"><path d="M 24 13 L 43.492188 13 L 43.492188 36 L 24 36 Z M 24 13 " clip-rule="nonzero"/></clipPath></defs><g clip-path="url(#7ce26ff0b6)"><path fill="#5c8dbc" d="M 43.429688 15.15625 C 43.429688 14.421875 43.269531 13.773438 42.953125 13.21875 C 42.644531 12.671875 42.179688 12.214844 41.554688 11.851562 C 36.40625 8.875 31.253906 5.90625 26.105469 2.925781 C 24.71875 2.121094 23.371094 2.152344 21.996094 2.96875 C 19.945312 4.179688 9.683594 10.074219 6.625 11.851562 C 5.367188 12.582031 4.753906 13.699219 4.753906 15.152344 C 4.753906 21.140625 4.753906 27.128906 4.753906 33.117188 C 4.753906 33.832031 4.902344 34.46875 5.203125 35.015625 C 5.515625 35.578125 5.988281 36.050781 6.625 36.421875 C 9.683594 38.195312 19.945312 44.089844 21.996094 45.304688 C 23.375 46.121094 24.71875 46.148438 26.105469 45.34375 C 31.253906 42.363281 36.410156 39.394531 41.558594 36.417969 C 42.199219 36.050781 42.667969 35.578125 42.980469 35.015625 C 43.28125 34.46875 43.429688 33.832031 43.429688 33.113281 C 43.429688 33.113281 43.429688 21.144531 43.429688 15.15625 " fill-opacity="1" fill-rule="nonzero"/></g><path fill="#1a4674" d="M 24.152344 24.078125 L 5.207031 35.015625 C 5.515625 35.578125 5.988281 36.050781 6.625 36.421875 C 9.683594 38.195312 19.945312 44.089844 21.996094 45.304688 C 23.375 46.121094 24.71875 46.148438 26.105469 45.34375 C 31.253906 42.363281 36.410156 39.394531 41.558594 36.417969 C 42.199219 36.050781 42.667969 35.578125 42.980469 35.015625 L 24.152344 24.078125 " fill-opacity="1" fill-rule="nonzero"/><path fill="#1a4674" d="M 18.539062 27.316406 C 19.640625 29.246094 21.714844 30.550781 24.089844 30.550781 C 26.484375 30.550781 28.566406 29.230469 29.664062 27.28125 L 24.152344 24.078125 L 18.539062 27.316406 " fill-opacity="1" fill-rule="nonzero"/><g clip-path="url(#455d8b326f)"><path fill="#1b598e" d="M 43.429688 15.15625 C 43.429688 14.421875 43.269531 13.773438 42.953125 13.21875 L 24.152344 24.078125 L 42.980469 35.015625 C 43.28125 34.46875 43.429688 33.832031 43.429688 33.113281 C 43.429688 33.113281 43.429688 21.144531 43.429688 15.15625 " fill-opacity="1" fill-rule="nonzero"/></g><path fill="#ffffff" d="M 42.394531 24.859375 L 40.921875 24.859375 L 40.921875 26.332031 L 39.449219 26.332031 L 39.449219 24.859375 L 37.980469 24.859375 L 37.980469 23.382812 L 39.449219 23.382812 L 39.449219 21.910156 L 40.921875 21.910156 L 40.921875 23.382812 L 42.394531 23.382812 L 42.394531 24.859375 " fill-opacity="1" fill-rule="nonzero"/><path fill="#ffffff" d="M 37.023438 24.859375 L 35.554688 24.859375 L 35.554688 26.332031 L 34.082031 26.332031 L 34.082031 24.859375 L 32.613281 24.859375 L 32.613281 23.382812 L 34.082031 23.382812 L 34.082031 21.910156 L 35.554688 21.910156 L 35.554688 23.382812 L 37.023438 23.382812 L 37.023438 24.859375 " fill-opacity="1" fill-rule="nonzero"/><path fill="#ffffff" d="M 29.664062 27.28125 C 28.566406 29.230469 26.484375 30.550781 24.089844 30.550781 C 21.714844 30.550781 19.640625 29.246094 18.539062 27.316406 C 18.003906 26.378906 17.695312 25.292969 17.695312 24.136719 C 17.695312 20.59375 20.558594 17.722656 24.089844 17.722656 C 26.453125 17.722656 28.515625 19.007812 29.621094 20.917969 L 35.210938 17.691406 C 32.992188 13.84375 28.84375 11.253906 24.089844 11.253906 C 16.996094 11.253906 11.246094 17.023438 11.246094 24.136719 C 11.246094 26.46875 11.867188 28.65625 12.949219 30.546875 C 15.164062 34.410156 19.324219 37.015625 24.089844 37.015625 C 28.867188 37.015625 33.035156 34.402344 35.246094 30.523438 L 29.664062 27.28125 " fill-opacity="1" fill-rule="nonzero"/></svg>