<svg xmlns="http://www.w3.org/2000/svg" xmlns:xlink="http://www.w3.org/1999/xlink" width="65" zoomAndPan="magnify" viewBox="0 0 48.75 48.749998" height="65" preserveAspectRatio="xMidYMid meet" version="1.0"><defs><clipPath id="ff88bc5f50"><path d="M 5.292969 3.304688 L 43.347656 3.304688 L 43.347656 45 L 5.292969 45 Z M 5.292969 3.304688 " clip-rule="nonzero"/></clipPath><clipPath id="1a03e72964"><path d="M 5.292969 3.304688 L 43 3.304688 L 43 35 L 5.292969 35 Z M 5.292969 3.304688 " clip-rule="nonzero"/></clipPath><clipPath id="6700ce584f"><path d="M 23 13 L 43.347656 13 L 43.347656 35 L 23 35 Z M 23 13 " clip-rule="nonzero"/></clipPath></defs><g clip-path="url(#ff88bc5f50)"><path fill="#283593" d="M 23.226562 3.6875 C 23.90625 3.308594 24.738281 3.308594 25.414062 3.6875 C 28.757812 5.550781 38.820312 11.164062 42.164062 13.027344 C 42.839844 13.40625 43.257812 14.101562 43.257812 14.855469 C 43.257812 18.585938 43.257812 29.808594 43.257812 33.539062 C 43.257812 34.292969 42.839844 34.988281 42.164062 35.367188 C 38.820312 37.230469 28.757812 42.84375 25.414062 44.707031 C 24.738281 45.085938 23.902344 45.085938 23.226562 44.707031 C 19.886719 42.84375 9.824219 37.230469 6.476562 35.367188 C 5.800781 34.988281 5.386719 34.292969 5.386719 33.539062 C 5.386719 29.808594 5.386719 18.585938 5.386719 14.855469 C 5.386719 14.101562 5.800781 13.40625 6.480469 13.027344 C 9.820312 11.164062 19.886719 5.550781 23.226562 3.6875 Z M 23.226562 3.6875 " fill-opacity="1" fill-rule="evenodd"/></g><g clip-path="url(#1a03e72964)"><path fill="#5c6bc0" d="M 5.6875 34.5 C 5.421875 34.148438 5.386719 33.8125 5.386719 33.363281 C 5.386719 29.652344 5.386719 18.496094 5.386719 14.785156 C 5.386719 14.035156 5.800781 13.34375 6.476562 12.96875 C 9.808594 11.113281 19.835938 5.535156 23.167969 3.679688 C 23.84375 3.304688 24.757812 3.3125 25.429688 3.6875 C 28.761719 5.542969 38.757812 11.074219 42.089844 12.929688 C 42.359375 13.078125 42.5625 13.261719 42.746094 13.5 Z M 5.6875 34.5 " fill-opacity="1" fill-rule="evenodd"/></g><path fill="#ffffff" d="M 24.320312 10.335938 C 32.023438 10.335938 38.273438 16.546875 38.273438 24.199219 C 38.273438 31.847656 32.023438 38.058594 24.320312 38.058594 C 16.621094 38.058594 10.367188 31.847656 10.367188 24.199219 C 10.367188 16.546875 16.621094 10.335938 24.320312 10.335938 Z M 24.320312 17.265625 C 28.171875 17.265625 31.296875 20.371094 31.296875 24.199219 C 31.296875 28.023438 28.171875 31.128906 24.320312 31.128906 C 20.472656 31.128906 17.34375 28.023438 17.34375 24.199219 C 17.34375 20.371094 20.472656 17.265625 24.320312 17.265625 Z M 24.320312 17.265625 " fill-opacity="1" fill-rule="evenodd"/><g clip-path="url(#6700ce584f)"><path fill="#3949ab" d="M 42.746094 13.507812 C 43.257812 13.988281 43.25 14.707031 43.25 15.273438 C 43.25 19.03125 43.21875 29.71875 43.257812 33.476562 C 43.261719 33.871094 43.132812 34.285156 42.9375 34.59375 L 23.917969 24.199219 Z M 42.746094 13.507812 " fill-opacity="1" fill-rule="evenodd"/></g></svg>