<svg xmlns="http://www.w3.org/2000/svg" xmlns:xlink="http://www.w3.org/1999/xlink" width="65" zoomAndPan="magnify" viewBox="0 0 48.75 48.749998" height="65" preserveAspectRatio="xMidYMid meet" version="1.0"><defs><clipPath id="a70762537e"><path d="M 5.125 2.425781 L 43.179688 2.425781 L 43.179688 46.449219 L 5.125 46.449219 Z M 5.125 2.425781 " clip-rule="nonzero"/></clipPath></defs><g clip-path="url(#a70762537e)"><path fill="#e44d26" d="M 8.578125 41.953125 L 5.113281 2.550781 L 43.1875 2.550781 L 39.722656 41.945312 L 24.125 46.328125 Z M 8.578125 41.953125 " fill-opacity="1" fill-rule="nonzero"/></g><path fill="#f16529" d="M 36.75 39.4375 L 39.714844 5.769531 L 24.152344 5.769531 L 24.152344 42.980469 Z M 36.75 39.4375 " fill-opacity="1" fill-rule="nonzero"/><path fill="#ebebeb" d="M 24.132812 10.601562 L 12.199219 10.601562 L 13.484375 25.21875 L 24.152344 25.21875 L 24.152344 20.386719 L 17.84375 20.386719 L 17.40625 15.4375 L 24.152344 15.4375 L 24.152344 10.601562 Z M 24.152344 32.917969 L 24.128906 32.925781 L 18.820312 31.472656 L 18.484375 27.617188 L 13.695312 27.617188 L 14.363281 35.207031 L 24.128906 37.941406 L 24.152344 37.933594 Z M 24.152344 32.917969 " fill-opacity="1" fill-rule="nonzero"/><path fill="#ffffff" d="M 24.132812 25.21875 L 30.003906 25.21875 L 29.464844 31.484375 L 24.148438 32.9375 L 24.148438 37.964844 L 33.921875 35.21875 L 35.230469 20.382812 L 24.152344 20.382812 Z M 35.960938 11.898438 L 36.074219 10.601562 L 24.132812 10.601562 L 24.132812 15.433594 L 35.644531 15.433594 L 35.738281 14.347656 Z M 35.960938 11.898438 " fill-opacity="1" fill-rule="nonzero"/></svg>